<svg width="26" height="25" viewBox="0 0 26 25" fill="none" xmlns="http://www.w3.org/2000/svg">
<path d="M22.0284 5.46739C20.408 5.4918 19.0766 6.8541 19.0434 8.52403C19.0197 9.71055 19.6357 10.7506 20.5596 11.2975V16.7955C20.5596 19.5934 18.1811 21.8736 15.2529 21.8736C12.41 21.8736 10.0789 19.7203 9.95094 17.0299C13.4003 16.2975 16.0063 13.1432 16.0063 9.37364V1.78574C16.0063 1.2291 15.6225 0.745706 15.0918 0.638284L12.1115 0.0230497C11.4956 -0.103903 10.8986 0.306253 10.7754 0.941018L10.6238 1.70762C10.5006 2.34239 10.8986 2.95762 11.5145 3.08457L12.9691 3.38243V9.31016C12.9691 11.8932 10.9696 14.0318 8.46316 14.0563C5.933 14.0807 3.87191 11.9713 3.87191 9.36875V3.38731L5.32652 3.08946C5.94247 2.9625 6.34048 2.34727 6.21729 1.7125L6.0704 0.945901C5.94721 0.311136 5.35021 -0.0990206 4.73425 0.0279326L1.7587 0.633401C1.22803 0.745706 0.844238 1.22422 0.844238 1.78574V9.37364C0.844238 13.1481 3.45495 16.3072 6.91379 17.0299C7.03698 21.4439 10.728 24.9986 15.2482 24.9986C19.8442 24.9986 23.5873 21.317 23.5873 16.7955V11.2975C24.4923 10.7555 25.1035 9.74961 25.1035 8.59239C25.1035 6.84922 23.72 5.44297 22.0284 5.46739ZM22.0711 9.37364C21.6541 9.37364 21.313 9.02207 21.313 8.59239C21.313 8.1627 21.6541 7.81114 22.0711 7.81114C22.488 7.81114 22.8292 8.1627 22.8292 8.59239C22.8292 9.02207 22.488 9.37364 22.0711 9.37364Z" fill="#FF0000"/>
</svg>
