<svg width="20" height="25" viewBox="0 0 20 25" fill="none" xmlns="http://www.w3.org/2000/svg">
<path d="M17.9982 0H2.07807C1.45264 0 0.940918 0.527344 0.940918 1.17188V3.51562C0.940918 4.16016 1.45264 4.6875 2.07807 4.6875H17.9982C18.6236 4.6875 19.1354 4.16016 19.1354 3.51562V1.17188C19.1354 0.527344 18.6236 0 17.9982 0ZM2.45712 23.4375C2.45712 24.2969 3.13941 25 3.97333 25H16.103C16.9369 25 17.6192 24.2969 17.6192 23.4375V6.25H2.45712V23.4375ZM5.48953 14.4531C5.48953 14.2383 5.6601 14.0625 5.86858 14.0625H8.52194V11.3281C8.52194 11.1133 8.69251 10.9375 8.90099 10.9375H11.1753C11.3838 10.9375 11.5543 11.1133 11.5543 11.3281V14.0625H14.2077C14.4162 14.0625 14.5868 14.2383 14.5868 14.4531V16.7969C14.5868 17.0117 14.4162 17.1875 14.2077 17.1875H11.5543V19.9219C11.5543 20.1367 11.3838 20.3125 11.1753 20.3125H8.90099C8.69251 20.3125 8.52194 20.1367 8.52194 19.9219V17.1875H5.86858C5.6601 17.1875 5.48953 17.0117 5.48953 16.7969V14.4531Z" fill="#FF0000"/>
</svg>
