<svg width="27" height="24" viewBox="0 0 27 24" fill="none" xmlns="http://www.w3.org/2000/svg">
<path d="M9.74236 0C8.38233 0 7.25427 0.960938 6.93132 2.25938C6.89493 2.25938 6.86764 2.25 6.83125 2.25C5.22559 2.25 3.92014 3.59531 3.92014 5.25C3.92014 5.475 3.94743 5.69531 3.99747 5.90625C2.66927 6.46875 1.73681 7.80937 1.73681 9.375C1.73681 9.96562 1.88236 10.5141 2.11434 11.0109C1.02267 11.6578 0.28125 12.8578 0.28125 14.25C0.28125 15.8109 1.20917 17.1516 2.52826 17.7141C2.48733 17.9297 2.46458 18.15 2.46458 18.375C2.46458 20.2406 3.92924 21.75 5.73958 21.75C5.92608 21.75 6.10802 21.7266 6.28542 21.6937C6.72208 23.0297 7.93201 24 9.37847 24C11.1888 24 12.6535 22.4906 12.6535 20.625V3C12.6535 1.34531 11.348 0 9.74236 0ZM26.4813 14.25C26.4813 12.8578 25.7398 11.6578 24.6482 11.0109C24.8847 10.5141 25.0257 9.96562 25.0257 9.375C25.0257 7.80937 24.0932 6.46875 22.765 5.90625C22.8105 5.69531 22.8424 5.475 22.8424 5.25C22.8424 3.59531 21.5369 2.25 19.9313 2.25C19.8949 2.25 19.863 2.25938 19.8312 2.25938C19.5082 0.960938 18.3802 0 17.0201 0C15.4145 0 14.109 1.34062 14.109 3V20.625C14.109 22.4906 15.5737 24 17.384 24C18.8305 24 20.0404 23.0297 20.4771 21.6937C20.6545 21.7266 20.8364 21.75 21.0229 21.75C22.8333 21.75 24.2979 20.2406 24.2979 18.375C24.2979 18.15 24.2752 17.9297 24.2342 17.7141C25.5533 17.1516 26.4813 15.8109 26.4813 14.25Z" fill="#BFBABA"/>
</svg>
