<svg width="25" height="25" viewBox="0 0 25 25" fill="none" xmlns="http://www.w3.org/2000/svg">
<path d="M8.11422 15.625H8.6828V16.4062C8.6828 16.8379 9.02205 17.1875 9.4409 17.1875H11.3362C11.755 17.1875 12.0943 16.8379 12.0943 16.4062V15.625H12.6628C13.5001 15.625 14.179 14.9253 14.179 14.0625V3.125C14.179 2.26221 13.5001 1.5625 12.6628 1.5625V0.78125C12.6628 0.349609 12.3236 0 11.9047 0H8.87232C8.45347 0 8.11422 0.349609 8.11422 0.78125V1.5625C7.27699 1.5625 6.59802 2.26221 6.59802 3.125V14.0625C6.59802 14.9253 7.27699 15.625 8.11422 15.625ZM22.5182 21.875H22.457C23.9036 20.2144 24.7925 18.0273 24.7925 15.625C24.7925 10.4551 20.712 6.25 15.6952 6.25V9.375C19.0394 9.375 21.7601 12.1787 21.7601 15.625C21.7601 19.0713 19.0394 21.875 15.6952 21.875H2.80751C1.55143 21.875 0.533203 22.9243 0.533203 24.2188C0.533203 24.6504 0.872454 25 1.29131 25H24.0344C24.4532 25 24.7925 24.6504 24.7925 24.2188C24.7925 22.9243 23.7742 21.875 22.5182 21.875ZM5.46087 20.3125H15.3162C15.5256 20.3125 15.6952 20.1377 15.6952 19.9219V19.1406C15.6952 18.9248 15.5256 18.75 15.3162 18.75H5.46087C5.25144 18.75 5.08181 18.9248 5.08181 19.1406V19.9219C5.08181 20.1377 5.25144 20.3125 5.46087 20.3125Z" fill="#BFBABA"/>
</svg>
