<svg width="25" height="25" viewBox="0 0 25 25" fill="none" xmlns="http://www.w3.org/2000/svg">
<path d="M12.1741 14.0625C15.9409 14.0625 18.997 10.9131 18.997 7.03125C18.997 3.14941 15.9409 0 12.1741 0C8.40724 0 5.35115 3.14941 5.35115 7.03125C5.35115 10.9131 8.40724 14.0625 12.1741 14.0625ZM18.2389 15.625H15.6282C14.5763 16.123 13.406 16.4062 12.1741 16.4062C10.9421 16.4062 9.77657 16.123 8.71996 15.625H6.10925C2.75939 15.625 0.0444336 18.4229 0.0444336 21.875V22.6562C0.0444336 23.9502 1.06313 25 2.31874 25H22.0294C23.285 25 24.3037 23.9502 24.3037 22.6562V21.875C24.3037 18.4229 21.5887 15.625 18.2389 15.625Z" fill="#FF0000"/>
</svg>
